<?xml version="1.0" encoding="utf-8"?>
<svg width="100%" height="100%" viewBox="0 0 1200 1080" version="1.1" xmlns="http://www.w3.org/2000/svg" style="fill-rule:evenodd;clip-rule:evenodd;stroke-linejoin:round;stroke-miterlimit:2;">
  <path d="M 0 0 H 1200 V 1080 H 0 V 0 Z" id="Artboard1" style="fill:rgb(46,46,46);"/>
  <path d="M 400.535 800.041 C 395.519 800.041 391.543 798.462 388.605 795.306 C 385.668 792.15 384.199 787.791 384.199 782.228 C 384.199 776.947 385.734 772.709 388.805 769.513 C 391.875 766.318 395.894 764.72 400.863 764.72 C 404.879 764.72 408.277 765.65 411.059 767.509 L 409.066 772.314 C 406.394 770.673 403.707 769.853 401.004 769.853 C 397.848 769.853 395.352 770.99 393.516 773.263 C 391.68 775.537 390.762 778.587 390.762 782.416 C 390.762 786.384 391.648 789.455 393.422 791.626 C 395.195 793.798 397.723 794.884 401.004 794.884 C 403.879 794.884 406.73 794.166 409.559 792.728 L 410.402 797.697 C 407.777 799.259 404.488 800.041 400.535 800.041 Z" style="fill:white;fill-rule:nonzero;"/>
  <path d="M 422.262 800.041 C 419.871 800.041 417.937 799.38 416.461 798.06 C 414.984 796.74 414.246 794.837 414.246 792.353 C 414.246 789.681 415.121 787.701 416.871 786.412 C 418.621 785.123 421.262 784.306 424.793 783.962 C 425.277 783.9 425.801 783.837 426.363 783.775 C 426.926 783.712 427.559 783.65 428.262 783.587 C 428.965 783.525 429.519 783.47 429.926 783.423 L 429.926 782.064 C 429.926 780.501 429.566 779.365 428.848 778.654 C 428.129 777.943 427.035 777.587 425.566 777.587 C 423.473 777.587 420.887 778.173 417.809 779.345 C 417.793 779.298 417.535 778.587 417.035 777.212 C 416.535 775.837 416.277 775.134 416.262 775.103 C 419.293 773.806 422.574 773.158 426.105 773.158 C 429.574 773.158 432.098 773.912 433.676 775.419 C 435.254 776.927 436.043 779.369 436.043 782.744 L 436.043 799.548 L 431.496 799.548 C 431.48 799.486 431.309 798.962 430.98 797.978 C 430.652 796.994 430.488 796.47 430.488 796.408 C 429.207 797.658 427.953 798.576 426.727 799.162 C 425.5 799.748 424.012 800.041 422.262 800.041 Z M 423.926 795.681 C 425.348 795.681 426.586 795.341 427.641 794.662 C 428.695 793.982 429.449 793.158 429.902 792.189 L 429.902 787.22 C 429.855 787.22 429.445 787.251 428.672 787.314 C 427.898 787.376 427.48 787.408 427.418 787.408 C 424.934 787.626 423.113 788.095 421.957 788.814 C 420.801 789.533 420.223 790.689 420.223 792.283 C 420.223 793.376 420.543 794.216 421.184 794.802 C 421.824 795.388 422.738 795.681 423.926 795.681 Z" style="fill:white;fill-rule:nonzero;"/>
  <path d="M 451.254 799.9 C 449.488 799.9 448.023 799.693 446.859 799.279 C 445.695 798.865 444.777 798.205 444.105 797.298 C 443.434 796.392 442.965 795.314 442.699 794.064 C 442.434 792.814 442.301 791.259 442.301 789.4 L 442.301 764.298 L 448.441 763.9 L 448.441 789.283 C 448.441 791.595 448.715 793.162 449.262 793.982 C 449.809 794.802 450.871 795.212 452.449 795.212 C 453.23 795.212 454.223 795.126 455.426 794.955 L 455.59 799.337 C 455.574 799.337 455.383 799.376 455.016 799.455 C 454.648 799.533 454.297 799.599 453.961 799.654 C 453.625 799.709 453.199 799.763 452.684 799.818 C 452.168 799.873 451.691 799.9 451.254 799.9 Z" style="fill:white;fill-rule:nonzero;"/>
  <path d="M 458.777 799.548 L 458.777 773.791 L 464.918 773.791 L 464.918 799.548 L 458.777 799.548 Z M 458.777 770.041 L 458.777 764.791 L 464.941 764.791 L 464.941 770.041 L 458.777 770.041 Z" style="fill:white;fill-rule:nonzero;"/>
  <path d="M 485.121 800.041 C 483.371 800.041 481.781 799.654 480.352 798.88 C 478.922 798.107 477.887 797.228 477.246 796.244 L 476.637 799.525 L 471.316 799.525 L 471.316 764.298 L 477.457 763.9 L 477.457 771.869 C 477.457 773.416 477.41 775.173 477.316 777.142 C 479.348 774.486 481.996 773.158 485.262 773.158 C 488.543 773.158 491.117 774.376 492.984 776.814 C 494.852 779.251 495.785 782.439 495.785 786.376 C 495.785 790.47 494.82 793.771 492.891 796.279 C 490.961 798.787 488.371 800.041 485.121 800.041 Z M 483.644 795.376 C 485.473 795.376 486.934 794.603 488.027 793.056 C 489.121 791.509 489.668 789.314 489.668 786.47 C 489.668 783.611 489.133 781.447 488.062 779.978 C 486.992 778.509 485.543 777.775 483.715 777.775 C 479.559 777.775 477.457 780.58 477.41 786.189 C 477.41 789.345 477.934 791.666 478.98 793.15 C 480.027 794.634 481.582 795.376 483.644 795.376 Z" style="fill:white;fill-rule:nonzero;"/>
  <path d="M 500.824 799.548 L 500.824 773.791 L 505.98 773.791 L 506.777 777.728 C 508.465 775.025 510.91 773.673 514.113 773.673 C 514.785 773.673 515.332 773.705 515.754 773.767 L 515.66 778.9 C 515.035 778.806 514.387 778.759 513.715 778.759 C 511.449 778.759 509.758 779.361 508.641 780.564 C 507.523 781.767 506.965 783.439 506.965 785.58 L 506.965 799.548 L 500.824 799.548 Z" style="fill:white;fill-rule:nonzero;"/>
  <path d="M 526.137 800.041 C 523.746 800.041 521.812 799.38 520.336 798.06 C 518.859 796.74 518.121 794.837 518.121 792.353 C 518.121 789.681 518.996 787.701 520.746 786.412 C 522.496 785.123 525.137 784.306 528.668 783.962 C 529.152 783.9 529.676 783.837 530.238 783.775 C 530.801 783.712 531.434 783.65 532.137 783.587 C 532.84 783.525 533.394 783.47 533.801 783.423 L 533.801 782.064 C 533.801 780.501 533.441 779.365 532.723 778.654 C 532.004 777.943 530.91 777.587 529.441 777.587 C 527.348 777.587 524.762 778.173 521.684 779.345 C 521.668 779.298 521.41 778.587 520.91 777.212 C 520.41 775.837 520.152 775.134 520.137 775.103 C 523.168 773.806 526.449 773.158 529.98 773.158 C 533.449 773.158 535.973 773.912 537.551 775.419 C 539.129 776.927 539.918 779.369 539.918 782.744 L 539.918 799.548 L 535.371 799.548 C 535.355 799.486 535.184 798.962 534.855 797.978 C 534.527 796.994 534.363 796.47 534.363 796.408 C 533.082 797.658 531.828 798.576 530.602 799.162 C 529.375 799.748 527.887 800.041 526.137 800.041 Z M 527.801 795.681 C 529.223 795.681 530.461 795.341 531.516 794.662 C 532.57 793.982 533.324 793.158 533.777 792.189 L 533.777 787.22 C 533.73 787.22 533.32 787.251 532.547 787.314 C 531.773 787.376 531.355 787.408 531.293 787.408 C 528.809 787.626 526.988 788.095 525.832 788.814 C 524.676 789.533 524.098 790.689 524.098 792.283 C 524.098 793.376 524.418 794.216 525.059 794.802 C 525.699 795.388 526.613 795.681 527.801 795.681 Z" style="fill:white;fill-rule:nonzero;"/>
  <path d="M 556.394 799.9 C 554.644 799.9 553.187 799.693 552.023 799.279 C 550.859 798.865 549.949 798.212 549.293 797.322 C 548.637 796.431 548.172 795.38 547.898 794.169 C 547.625 792.959 547.488 791.462 547.488 789.681 L 547.488 777.517 L 543.269 777.517 L 543.504 774.189 L 547.91 773.791 L 549.879 766.806 L 553.629 766.783 L 553.629 773.791 L 560.027 773.791 L 560.027 777.517 L 553.629 777.517 L 553.629 789.798 C 553.629 791.751 553.91 793.142 554.473 793.97 C 555.035 794.798 556.074 795.212 557.59 795.212 C 558.48 795.212 559.434 795.134 560.449 794.978 L 560.613 799.384 C 560.582 799.384 560.391 799.419 560.039 799.49 C 559.687 799.56 559.352 799.623 559.031 799.677 C 558.711 799.732 558.301 799.783 557.801 799.83 C 557.301 799.876 556.832 799.9 556.394 799.9 Z" style="fill:white;fill-rule:nonzero;"/>
  <path d="M 576.621 800.041 C 572.48 800.041 569.258 798.849 566.953 796.466 C 564.648 794.084 563.496 790.791 563.496 786.587 C 563.496 782.494 564.582 779.236 566.754 776.814 C 568.926 774.392 571.887 773.173 575.637 773.158 C 579.184 773.158 581.937 774.267 583.898 776.486 C 585.859 778.705 586.84 781.65 586.84 785.322 C 586.84 785.587 586.836 786.017 586.828 786.611 C 586.82 787.205 586.816 787.642 586.816 787.923 L 569.684 787.923 C 569.746 790.33 570.406 792.193 571.664 793.513 C 572.922 794.834 574.652 795.494 576.855 795.494 C 579.668 795.494 582.371 794.759 584.965 793.291 L 585.832 797.65 C 583.254 799.244 580.184 800.041 576.621 800.041 Z M 569.801 784.056 L 581.051 784.056 C 581.051 781.962 580.574 780.353 579.621 779.228 C 578.668 778.103 577.348 777.541 575.66 777.541 C 574.082 777.541 572.75 778.087 571.664 779.181 C 570.578 780.275 569.957 781.9 569.801 784.056 Z" style="fill:white;fill-rule:nonzero;"/>
  <path d="M 620.426 800.041 C 615.191 800.041 611.102 798.462 608.156 795.306 C 605.211 792.15 603.738 787.83 603.738 782.345 C 603.738 778.861 604.426 775.794 605.801 773.146 C 607.176 770.498 609.199 768.431 611.871 766.947 C 614.543 765.462 617.699 764.72 621.34 764.72 C 625.512 764.72 629.09 765.619 632.074 767.416 L 630.012 772.15 C 627.168 770.619 624.316 769.853 621.457 769.853 C 617.988 769.853 615.262 770.978 613.277 773.228 C 611.293 775.478 610.301 778.541 610.301 782.416 C 610.301 786.259 611.184 789.298 612.949 791.533 C 614.715 793.767 617.301 794.884 620.707 794.884 C 622.894 794.884 624.879 794.541 626.66 793.853 L 626.66 785.884 L 619.465 785.884 L 619.512 780.892 L 632.637 780.892 L 632.637 797.462 C 630.512 798.337 628.5 798.986 626.602 799.408 C 624.703 799.83 622.644 800.041 620.426 800.041 Z" style="fill:white;fill-rule:nonzero;"/>
  <path d="M 645.668 800.041 C 643.277 800.041 641.344 799.38 639.867 798.06 C 638.391 796.74 637.652 794.837 637.652 792.353 C 637.652 789.681 638.527 787.701 640.277 786.412 C 642.027 785.123 644.668 784.306 648.199 783.962 C 648.684 783.9 649.207 783.837 649.769 783.775 C 650.332 783.712 650.965 783.65 651.668 783.587 C 652.371 783.525 652.926 783.47 653.332 783.423 L 653.332 782.064 C 653.332 780.501 652.973 779.365 652.254 778.654 C 651.535 777.943 650.441 777.587 648.973 777.587 C 646.879 777.587 644.293 778.173 641.215 779.345 C 641.199 779.298 640.941 778.587 640.441 777.212 C 639.941 775.837 639.684 775.134 639.668 775.103 C 642.699 773.806 645.98 773.158 649.512 773.158 C 652.98 773.158 655.504 773.912 657.082 775.419 C 658.66 776.927 659.449 779.369 659.449 782.744 L 659.449 799.548 L 654.902 799.548 C 654.887 799.486 654.715 798.962 654.387 797.978 C 654.059 796.994 653.894 796.47 653.894 796.408 C 652.613 797.658 651.359 798.576 650.133 799.162 C 648.906 799.748 647.418 800.041 645.668 800.041 Z M 647.332 795.681 C 648.754 795.681 649.992 795.341 651.047 794.662 C 652.102 793.982 652.855 793.158 653.309 792.189 L 653.309 787.22 C 653.262 787.22 652.852 787.251 652.078 787.314 C 651.305 787.376 650.887 787.408 650.824 787.408 C 648.34 787.626 646.519 788.095 645.363 788.814 C 644.207 789.533 643.629 790.689 643.629 792.283 C 643.629 793.376 643.949 794.216 644.59 794.802 C 645.23 795.388 646.144 795.681 647.332 795.681 Z" style="fill:white;fill-rule:nonzero;"/>
  <path d="M 665.637 799.548 L 665.637 773.791 L 670.605 773.791 L 671.309 777.072 C 671.621 776.681 671.922 776.334 672.211 776.029 C 672.5 775.724 672.898 775.38 673.406 774.998 C 673.914 774.615 674.453 774.298 675.023 774.048 C 675.594 773.798 676.297 773.587 677.133 773.416 C 677.969 773.244 678.863 773.158 679.816 773.158 C 681.863 773.158 683.5 773.572 684.727 774.4 C 685.953 775.228 686.816 776.197 687.316 777.306 C 688.238 775.978 689.434 774.955 690.902 774.236 C 692.371 773.517 694.004 773.158 695.801 773.158 C 698.754 773.158 700.922 773.994 702.305 775.666 C 703.687 777.337 704.379 779.814 704.379 783.095 L 704.379 799.548 L 698.215 799.548 L 698.215 784.923 C 698.215 782.408 697.937 780.591 697.383 779.474 C 696.828 778.357 695.769 777.798 694.207 777.798 C 691.816 777.798 690.098 778.876 689.051 781.033 C 688.613 781.986 688.316 783.134 688.16 784.478 L 688.16 799.548 L 682.019 799.548 L 682.019 784.642 C 682.019 782.345 681.715 780.634 681.105 779.509 C 680.496 778.384 679.394 777.822 677.801 777.822 C 676.504 777.822 675.387 778.15 674.449 778.806 C 673.512 779.462 672.801 780.322 672.316 781.384 C 671.957 782.962 671.777 784.853 671.777 787.056 L 671.777 799.548 L 665.637 799.548 Z" style="fill:white;fill-rule:nonzero;"/>
  <path d="M 722.332 800.041 C 718.191 800.041 714.969 798.849 712.664 796.466 C 710.359 794.084 709.207 790.791 709.207 786.587 C 709.207 782.494 710.293 779.236 712.465 776.814 C 714.637 774.392 717.598 773.173 721.348 773.158 C 724.894 773.158 727.648 774.267 729.609 776.486 C 731.57 778.705 732.551 781.65 732.551 785.322 C 732.551 785.587 732.547 786.017 732.539 786.611 C 732.531 787.205 732.527 787.642 732.527 787.923 L 715.394 787.923 C 715.457 790.33 716.117 792.193 717.375 793.513 C 718.633 794.834 720.363 795.494 722.566 795.494 C 725.379 795.494 728.082 794.759 730.676 793.291 L 731.543 797.65 C 728.965 799.244 725.894 800.041 722.332 800.041 Z M 715.512 784.056 L 726.762 784.056 C 726.762 781.962 726.285 780.353 725.332 779.228 C 724.379 778.103 723.059 777.541 721.371 777.541 C 719.793 777.541 718.461 778.087 717.375 779.181 C 716.289 780.275 715.668 781.9 715.512 784.056 Z" style="fill:white;fill-rule:nonzero;"/>
  <path d="M 737.543 810.259 L 737.543 773.791 L 742.816 773.791 L 743.473 777.4 C 744.316 776.041 745.437 774.99 746.836 774.248 C 748.234 773.505 749.793 773.134 751.512 773.134 C 753.621 773.134 755.477 773.72 757.078 774.892 C 758.68 776.064 759.894 777.662 760.723 779.685 C 761.551 781.709 761.965 783.994 761.965 786.541 C 761.965 790.525 761 793.771 759.07 796.279 C 757.141 798.787 754.527 800.041 751.23 800.041 C 749.605 800.041 748.133 799.716 746.812 799.068 C 745.492 798.419 744.387 797.541 743.496 796.431 C 743.621 798.681 743.684 799.947 743.684 800.228 L 743.684 809.955 L 737.543 810.259 Z M 749.918 795.353 C 751.746 795.353 753.187 794.587 754.242 793.056 C 755.297 791.525 755.824 789.337 755.824 786.494 C 755.824 783.603 755.293 781.431 754.23 779.978 C 753.168 778.525 751.691 777.798 749.801 777.798 C 745.738 777.798 743.684 780.564 743.637 786.095 C 743.637 789.283 744.164 791.623 745.219 793.115 C 746.273 794.607 747.84 795.353 749.918 795.353 Z" style="fill:white;fill-rule:nonzero;"/>
  <path d="M 773.684 800.041 C 771.293 800.041 769.359 799.38 767.883 798.06 C 766.406 796.74 765.668 794.837 765.668 792.353 C 765.668 789.681 766.543 787.701 768.293 786.412 C 770.043 785.123 772.684 784.306 776.215 783.962 C 776.699 783.9 777.223 783.837 777.785 783.775 C 778.348 783.712 778.98 783.65 779.684 783.587 C 780.387 783.525 780.941 783.47 781.348 783.423 L 781.348 782.064 C 781.348 780.501 780.988 779.365 780.269 778.654 C 779.551 777.943 778.457 777.587 776.988 777.587 C 774.894 777.587 772.309 778.173 769.23 779.345 C 769.215 779.298 768.957 778.587 768.457 777.212 C 767.957 775.837 767.699 775.134 767.684 775.103 C 770.715 773.806 773.996 773.158 777.527 773.158 C 780.996 773.158 783.519 773.912 785.098 775.419 C 786.676 776.927 787.465 779.369 787.465 782.744 L 787.465 799.548 L 782.918 799.548 C 782.902 799.486 782.73 798.962 782.402 797.978 C 782.074 796.994 781.91 796.47 781.91 796.408 C 780.629 797.658 779.375 798.576 778.148 799.162 C 776.922 799.748 775.434 800.041 773.684 800.041 Z M 775.348 795.681 C 776.769 795.681 778.008 795.341 779.062 794.662 C 780.117 793.982 780.871 793.158 781.324 792.189 L 781.324 787.22 C 781.277 787.22 780.867 787.251 780.094 787.314 C 779.32 787.376 778.902 787.408 778.84 787.408 C 776.355 787.626 774.535 788.095 773.379 788.814 C 772.223 789.533 771.644 790.689 771.644 792.283 C 771.644 793.376 771.965 794.216 772.605 794.802 C 773.246 795.388 774.16 795.681 775.348 795.681 Z" style="fill:white;fill-rule:nonzero;"/>
  <path d="M 803.238 800.041 C 799.879 800.041 797.238 798.806 795.316 796.337 C 793.394 793.869 792.434 790.572 792.434 786.447 C 792.434 782.447 793.391 779.232 795.305 776.802 C 797.219 774.373 799.855 773.158 803.215 773.158 C 806.871 773.158 809.457 774.455 810.973 777.048 C 810.816 775.517 810.738 774.041 810.738 772.619 L 810.738 764.298 L 816.879 763.9 L 816.879 799.548 L 811.559 799.548 L 810.879 796.033 C 810.613 796.455 810.367 796.818 810.141 797.123 C 809.914 797.427 809.582 797.779 809.144 798.177 C 808.707 798.576 808.234 798.896 807.727 799.138 C 807.219 799.38 806.578 799.591 805.805 799.771 C 805.031 799.951 804.176 800.041 803.238 800.041 Z M 804.691 795.376 C 808.816 795.376 810.91 792.572 810.973 786.962 C 810.973 783.791 810.441 781.478 809.379 780.025 C 808.316 778.572 806.73 777.845 804.621 777.845 C 802.777 777.845 801.305 778.584 800.203 780.06 C 799.102 781.537 798.551 783.712 798.551 786.587 C 798.551 789.447 799.102 791.626 800.203 793.126 C 801.305 794.626 802.801 795.376 804.691 795.376 Z" style="fill:white;fill-rule:nonzero;"/>
  <path d="M 513.4 400 C 447.15 400 393.4 453.75 393.4 520 C 393.4 586.25 447.15 640 513.4 640 L 673.4 640 C 739.65 640 793.4 586.25 793.4 520 C 793.4 453.75 739.65 400 673.4 400 L 513.4 400 Z M 703.4 465 C 717.114 465 728.4 476.286 728.4 490 C 728.4 503.714 717.114 515 703.4 515 C 689.686 515 678.4 503.714 678.4 490 C 678.4 476.286 689.686 465 703.4 465 Z M 638.4 550 C 638.4 536.286 649.686 525 663.4 525 C 677.114 525 688.4 536.286 688.4 550 C 688.4 563.714 677.114 575 663.4 575 C 649.686 575 638.4 563.714 638.4 550 Z M 498.4 485 C 498.4 476.688 505.087 470 513.4 470 C 521.712 470 528.4 476.688 528.4 485 L 528.4 505 L 548.4 505 C 556.712 505 563.4 511.688 563.4 520 C 563.4 528.313 556.712 535 548.4 535 L 528.4 535 L 528.4 555 C 528.4 563.313 521.712 570 513.4 570 C 505.087 570 498.4 563.313 498.4 555 L 498.4 535 L 478.4 535 C 470.087 535 463.4 528.313 463.4 520 C 463.4 511.688 470.087 505 478.4 505 L 498.4 505 L 498.4 485 Z" style="fill:white;fill-rule:nonzero;"/>
  <path d="M 573.4 487.694 C 573.4 490.46 575.634 492.694 578.4 492.694 L 586.947 492.694 C 588.869 497.116 593.275 500.194 598.4 500.194 C 603.525 500.194 607.931 497.116 609.853 492.694 L 648.4 492.694 C 651.166 492.694 653.4 490.46 653.4 487.694 C 653.4 484.928 651.166 482.694 648.4 482.694 L 609.853 482.694 C 607.931 478.272 603.525 475.194 598.4 475.194 C 593.275 475.194 588.869 478.272 586.947 482.694 L 578.4 482.694 C 575.634 482.694 573.4 484.928 573.4 487.694 Z M 593.4 487.694 C 593.4 484.951 595.657 482.694 598.4 482.694 C 601.143 482.694 603.4 484.951 603.4 487.694 C 603.4 490.437 601.143 492.694 598.4 492.694 C 595.657 492.694 593.4 490.437 593.4 487.694 Z M 623.4 462.694 C 623.4 459.951 625.657 457.694 628.4 457.694 C 631.143 457.694 633.4 459.951 633.4 462.694 C 633.4 465.437 631.143 467.694 628.4 467.694 C 625.657 467.694 623.4 465.437 623.4 462.694 Z M 628.4 450.194 C 623.275 450.194 618.869 453.272 616.947 457.694 L 578.4 457.694 C 575.634 457.694 573.4 459.928 573.4 462.694 C 573.4 465.46 575.634 467.694 578.4 467.694 L 616.947 467.694 C 618.869 472.116 623.275 475.194 628.4 475.194 C 633.525 475.194 637.931 472.116 639.853 467.694 L 648.4 467.694 C 651.166 467.694 653.4 465.46 653.4 462.694 C 653.4 459.928 651.166 457.694 648.4 457.694 L 639.853 457.694 C 637.931 453.272 633.525 450.194 628.4 450.194 Z M 603.4 442.694 C 600.657 442.694 598.4 440.437 598.4 437.694 C 598.4 434.951 600.657 432.694 603.4 432.694 C 606.143 432.694 608.4 434.951 608.4 437.694 C 608.4 440.437 606.143 442.694 603.4 442.694 Z M 614.853 432.694 C 612.931 428.272 608.525 425.194 603.4 425.194 C 598.275 425.194 593.869 428.272 591.947 432.694 L 578.4 432.694 C 575.634 432.694 573.4 434.928 573.4 437.694 C 573.4 440.46 575.634 442.694 578.4 442.694 L 591.947 442.694 C 593.869 447.116 598.275 450.194 603.4 450.194 C 608.525 450.194 612.931 447.116 614.853 442.694 L 648.4 442.694 C 651.166 442.694 653.4 440.46 653.4 437.694 C 653.4 434.928 651.166 432.694 648.4 432.694 L 614.853 432.694 Z" style="fill:rgb(46,46,46);fill-rule:nonzero;"/>
</svg>