<?xml version="1.0" encoding="utf-8"?>
<svg width="100%" height="100%" viewBox="0 0 1200 1080" version="1.1" xmlns="http://www.w3.org/2000/svg" style="fill-rule:evenodd;clip-rule:evenodd;stroke-linejoin:round;stroke-miterlimit:2;">
  <rect id="Artboard1" x="0" y="0" width="1200" height="1080" style="fill:rgb(46,46,46);"/>
  <path d="M 459.453 793.562 L 464 793.562 C 467.922 793.562 470.906 792.535 472.953 790.48 C 475 788.426 476.024 785.43 476.024 781.492 C 476.024 777.273 474.969 774.207 472.86 772.293 C 470.75 770.379 467.571 769.422 463.321 769.422 L 459.453 769.422 L 459.453 793.562 Z M 453.102 798.648 L 453.102 764.312 L 463.039 764.312 C 466.039 764.312 468.727 764.656 471.102 765.344 C 473.477 766.031 475.52 767.066 477.231 768.449 C 478.942 769.832 480.254 771.613 481.168 773.793 C 482.082 775.973 482.539 778.492 482.539 781.351 C 482.539 786.898 480.867 791.168 477.524 794.16 C 474.18 797.152 469.547 798.648 463.625 798.648 L 453.102 798.648 Z" style="fill:white;fill-rule:nonzero;"/>
  <path d="M 494.774 799.141 C 492.383 799.141 490.449 798.48 488.973 797.16 C 487.496 795.84 486.758 793.937 486.758 791.453 C 486.758 788.781 487.633 786.801 489.383 785.512 C 491.133 784.223 493.774 783.406 497.305 783.062 C 497.789 783 498.313 782.937 498.875 782.875 C 499.438 782.812 500.071 782.75 500.774 782.687 C 501.477 782.625 502.031 782.57 502.438 782.523 L 502.438 781.164 C 502.438 779.601 502.078 778.465 501.36 777.754 C 500.641 777.043 499.547 776.687 498.078 776.687 C 495.985 776.687 493.399 777.273 490.321 778.445 C 490.305 778.398 490.047 777.687 489.547 776.312 C 489.047 774.937 488.789 774.234 488.774 774.203 C 491.805 772.906 495.086 772.258 498.617 772.258 C 502.086 772.258 504.61 773.012 506.188 774.519 C 507.766 776.027 508.555 778.469 508.555 781.844 L 508.555 798.648 L 504.008 798.648 C 503.992 798.586 503.821 798.062 503.492 797.078 C 503.164 796.094 503 795.57 503 795.508 C 501.719 796.758 500.465 797.676 499.238 798.262 C 498.012 798.848 496.524 799.141 494.774 799.141 Z M 496.438 794.781 C 497.86 794.781 499.098 794.441 500.153 793.762 C 501.207 793.082 501.961 792.258 502.414 791.289 L 502.414 786.32 C 502.367 786.32 501.957 786.351 501.184 786.414 C 500.41 786.476 499.992 786.508 499.93 786.508 C 497.446 786.726 495.625 787.195 494.469 787.914 C 493.313 788.633 492.735 789.789 492.735 791.383 C 492.735 792.476 493.055 793.316 493.696 793.902 C 494.336 794.488 495.25 794.781 496.438 794.781 Z" style="fill:white;fill-rule:nonzero;"/>
  <path d="M 526.649 799.141 C 522.508 799.141 519.285 797.949 516.981 795.566 C 514.676 793.184 513.524 789.891 513.524 785.687 C 513.524 781.594 514.61 778.336 516.781 775.914 C 518.953 773.492 521.914 772.273 525.664 772.258 C 529.211 772.258 531.965 773.367 533.926 775.586 C 535.887 777.805 536.867 780.75 536.867 784.422 C 536.867 784.687 536.863 785.117 536.856 785.711 C 536.848 786.305 536.844 786.742 536.844 787.023 L 519.711 787.023 C 519.774 789.43 520.434 791.293 521.692 792.613 C 522.949 793.934 524.68 794.594 526.883 794.594 C 529.696 794.594 532.399 793.859 534.992 792.391 L 535.86 796.75 C 533.281 798.344 530.211 799.141 526.649 799.141 Z M 519.828 783.156 L 531.078 783.156 C 531.078 781.062 530.602 779.453 529.649 778.328 C 528.696 777.203 527.375 776.641 525.688 776.641 C 524.11 776.641 522.778 777.187 521.692 778.281 C 520.606 779.375 519.985 781 519.828 783.156 Z" style="fill:white;fill-rule:nonzero;"/>
  <path d="M 551.446 799.141 C 548.086 799.141 545.446 797.906 543.524 795.437 C 541.602 792.969 540.641 789.672 540.641 785.547 C 540.641 781.547 541.598 778.332 543.512 775.902 C 545.426 773.473 548.063 772.258 551.422 772.258 C 555.078 772.258 557.664 773.555 559.18 776.148 C 559.024 774.617 558.946 773.141 558.946 771.719 L 558.946 763.398 L 565.086 763 L 565.086 798.648 L 559.766 798.648 L 559.086 795.133 C 558.821 795.555 558.574 795.918 558.348 796.223 C 558.121 796.527 557.789 796.879 557.352 797.277 C 556.914 797.676 556.442 797.996 555.934 798.238 C 555.426 798.48 554.785 798.691 554.012 798.871 C 553.238 799.051 552.383 799.141 551.446 799.141 Z M 552.899 794.476 C 557.024 794.476 559.117 791.672 559.18 786.062 C 559.18 782.891 558.649 780.578 557.586 779.125 C 556.524 777.672 554.938 776.945 552.828 776.945 C 550.985 776.945 549.512 777.684 548.41 779.16 C 547.309 780.637 546.758 782.812 546.758 785.687 C 546.758 788.547 547.309 790.726 548.41 792.226 C 549.512 793.726 551.008 794.476 552.899 794.476 Z" style="fill:white;fill-rule:nonzero;"/>
  <path d="M 578.164 799.141 C 575.774 799.141 573.84 798.48 572.363 797.16 C 570.887 795.84 570.149 793.937 570.149 791.453 C 570.149 788.781 571.024 786.801 572.774 785.512 C 574.524 784.223 577.164 783.406 580.696 783.062 C 581.18 783 581.703 782.937 582.266 782.875 C 582.828 782.812 583.461 782.75 584.164 782.687 C 584.867 782.625 585.422 782.57 585.828 782.523 L 585.828 781.164 C 585.828 779.601 585.469 778.465 584.75 777.754 C 584.031 777.043 582.938 776.687 581.469 776.687 C 579.375 776.687 576.789 777.273 573.711 778.445 C 573.696 778.398 573.438 777.687 572.938 776.312 C 572.438 774.937 572.18 774.234 572.164 774.203 C 575.196 772.906 578.477 772.258 582.008 772.258 C 585.477 772.258 588 773.012 589.578 774.519 C 591.156 776.027 591.946 778.469 591.946 781.844 L 591.946 798.648 L 587.399 798.648 C 587.383 798.586 587.211 798.062 586.883 797.078 C 586.555 796.094 586.391 795.57 586.391 795.508 C 585.11 796.758 583.856 797.676 582.629 798.262 C 581.403 798.848 579.914 799.141 578.164 799.141 Z M 579.828 794.781 C 581.25 794.781 582.488 794.441 583.543 793.762 C 584.598 793.082 585.352 792.258 585.805 791.289 L 585.805 786.32 C 585.758 786.32 585.348 786.351 584.574 786.414 C 583.801 786.476 583.383 786.508 583.321 786.508 C 580.836 786.726 579.016 787.195 577.86 787.914 C 576.703 788.633 576.125 789.789 576.125 791.383 C 576.125 792.476 576.446 793.316 577.086 793.902 C 577.727 794.488 578.641 794.781 579.828 794.781 Z" style="fill:white;fill-rule:nonzero;"/>
  <path d="M 607.156 799 C 605.391 799 603.926 798.793 602.762 798.379 C 601.598 797.965 600.68 797.305 600.008 796.398 C 599.336 795.492 598.867 794.414 598.602 793.164 C 598.336 791.914 598.203 790.359 598.203 788.5 L 598.203 763.398 L 604.344 763 L 604.344 788.383 C 604.344 790.695 604.617 792.262 605.164 793.082 C 605.711 793.902 606.774 794.312 608.352 794.312 C 609.133 794.312 610.125 794.226 611.328 794.055 L 611.492 798.437 C 611.477 798.437 611.285 798.476 610.918 798.555 C 610.551 798.633 610.199 798.699 609.863 798.754 C 609.528 798.809 609.102 798.863 608.586 798.918 C 608.071 798.973 607.594 799 607.156 799 Z" style="fill:white;fill-rule:nonzero;"/>
  <path d="M 633.125 796.633 C 631.078 798.305 628.383 799.141 625.039 799.141 C 621.696 799.141 619.004 798.305 616.965 796.633 C 614.926 794.961 613.906 792.508 613.906 789.273 L 613.906 772.891 L 620.071 772.891 L 620.071 789.039 C 620.071 790.961 620.473 792.351 621.278 793.211 C 622.082 794.07 623.36 794.5 625.11 794.5 C 626.828 794.5 628.082 794.074 628.871 793.223 C 629.66 792.371 630.055 790.976 630.055 789.039 L 630.055 772.891 L 636.196 772.891 L 636.196 789.273 C 636.196 792.492 635.172 794.945 633.125 796.633 Z" style="fill:white;fill-rule:nonzero;"/>
  <path d="M 650.024 799.117 C 646.227 799.117 643.188 798.469 640.906 797.172 L 641.539 792.555 C 642.571 793.117 643.883 793.621 645.477 794.066 C 647.071 794.512 648.524 794.734 649.836 794.734 C 651.196 794.734 652.254 794.48 653.012 793.973 C 653.77 793.465 654.156 792.719 654.172 791.734 C 654.172 790.844 653.817 790.141 653.106 789.625 C 652.395 789.109 651.039 788.469 649.039 787.703 C 648.352 787.453 647.906 787.289 647.703 787.211 C 645.328 786.289 643.617 785.262 642.571 784.129 C 641.524 782.996 641 781.461 641 779.523 C 641 777.18 641.848 775.383 643.543 774.133 C 645.238 772.883 647.602 772.258 650.633 772.258 C 653.914 772.258 656.797 772.875 659.281 774.109 L 657.758 778.351 C 655.305 777.211 652.969 776.641 650.75 776.641 C 649.516 776.641 648.551 776.848 647.856 777.262 C 647.16 777.676 646.813 778.305 646.813 779.148 C 646.813 779.945 647.149 780.566 647.821 781.012 C 648.492 781.457 649.805 782.039 651.758 782.758 C 651.821 782.773 652.024 782.844 652.367 782.969 C 652.711 783.094 652.977 783.195 653.164 783.273 C 655.524 784.133 657.258 785.16 658.367 786.355 C 659.477 787.551 660.031 789.109 660.031 791.031 C 660.016 793.609 659.141 795.601 657.406 797.008 C 655.672 798.414 653.211 799.117 650.024 799.117 Z" style="fill:white;fill-rule:nonzero;"/>
  <path d="M 661.508 798.648 L 673.531 781.07 L 662.399 764.312 L 669.547 764.312 L 677.633 777.109 L 685.953 764.312 L 692.727 764.312 L 681.36 781.164 L 693.336 798.648 L 686 798.648 L 677.328 785.289 L 668.469 798.648 L 661.508 798.648 Z" style="fill:white;fill-rule:nonzero;"/>
  <path d="M 707.516 799.141 C 703.703 799.141 700.602 798.101 698.211 796.023 C 695.821 793.945 694.625 791.203 694.625 787.797 C 694.625 786.703 694.742 785.656 694.977 784.656 C 695.211 783.656 695.571 782.68 696.055 781.726 C 696.539 780.773 697.024 779.93 697.508 779.195 C 697.992 778.461 698.617 777.586 699.383 776.57 L 709.133 764.266 L 716.399 764.266 L 705.758 777.695 C 706.899 777.305 707.852 777.109 708.617 777.109 C 711.977 777.109 714.727 778.113 716.867 780.121 C 719.008 782.129 720.078 784.742 720.078 787.961 C 720.078 791.305 718.906 794.004 716.563 796.059 C 714.219 798.113 711.203 799.141 707.516 799.141 Z M 707.235 794.453 C 709.297 794.453 710.91 793.863 712.074 792.684 C 713.238 791.504 713.821 789.953 713.821 788.031 C 713.821 786.016 713.274 784.426 712.18 783.262 C 711.086 782.098 709.461 781.516 707.305 781.516 C 705.117 781.516 703.508 782.101 702.477 783.273 C 701.446 784.445 700.93 786.047 700.93 788.078 C 700.93 790 701.477 791.543 702.571 792.707 C 703.664 793.871 705.219 794.453 707.235 794.453 Z" style="fill:white;fill-rule:nonzero;"/>
  <path d="M 738.992 798.648 L 738.992 791.031 L 723.5 791.031 L 723.5 786.859 L 737.399 764.476 L 745.203 764.476 L 745.203 786.391 L 749.422 786.391 L 749.117 791.031 L 745.203 791.031 L 745.203 798.648 L 738.992 798.648 Z M 729.594 786.414 L 738.992 786.414 L 738.992 770.476 L 729.594 786.414 Z" style="fill:white;fill-rule:nonzero;"/>
  <path d="M 599.991 403.072 L 559.62 475.12 L 599.991 459.65 L 638.524 474.405 L 648.843 462.823 L 648.843 384.128 L 599.991 403.072 Z" style="fill:rgb(98,98,98);fill-rule:nonzero;"/>
  <path d="M 725.368 661.866 L 652.453 566.706 L 652.453 692.521 L 599.951 714.729 L 599.951 499.814 L 652.453 479.707 L 725.368 583.924 L 725.368 451.422 L 774.951 432.3 L 774.951 641.042 L 725.368 661.866 Z" style="fill:rgb(98,98,98);fill-rule:nonzero;"/>
  <path d="M 474.666 661.776 L 521.185 641.18 L 474.666 550.864 L 474.666 661.776 Z" style="fill:rgb(98,98,98);fill-rule:nonzero;"/>
  <path d="M 524.145 432.226 L 547.481 479.628 L 559.607 474.988 L 599.978 402.941 L 551.122 383.941 L 524.145 432.226 Z M 638.511 474.273 L 675.828 432.226 L 725.395 451.348 L 725.395 583.85 L 652.48 479.634 L 638.511 474.273 Z" style="fill:white;fill-rule:nonzero;"/>
  <path d="M 474.582 451.422 L 425 432.3 L 425 641.042 L 474.582 661.866 L 474.582 550.953 L 547.502 692.521 L 599.999 714.729 L 599.999 499.814 L 547.502 479.702 L 547.502 588.806 L 474.582 451.422 Z" style="fill:white;fill-rule:nonzero;"/>
  <path d="M 547.586 479.702 L 547.586 588.806 L 474.666 451.422 L 524.249 432.3 L 547.586 479.702 Z M 725.5 661.866 L 652.585 566.706 L 652.585 618.697 L 667.474 639.584 L 725.5 661.866 Z" style="fill:rgb(151,151,151);fill-rule:nonzero;"/>
  <path d="M 652.501 479.768 L 599.999 499.88 L 547.502 479.768 L 599.999 459.658 L 652.501 479.768 Z M 675.83 432.366 L 725.416 413.292 L 774.999 432.366 L 725.416 451.488 L 675.83 432.366 Z M 425 432.366 L 474.582 413.292 L 524.166 432.366 L 474.582 451.488 L 425 432.366 Z M 648.851 384.136 L 599.999 365.27 L 551.143 384.081 L 599.999 403.081 L 648.851 384.136 Z" style="fill:rgb(203,203,203);fill-rule:nonzero;"/>
</svg>