<?xml version="1.0" encoding="utf-8"?>
<svg width="100%" height="100%" viewBox="0 0 1200 1080" version="1.1" xmlns="http://www.w3.org/2000/svg" style="fill-rule:evenodd;clip-rule:evenodd;stroke-linejoin:round;stroke-miterlimit:2;">
  <rect id="Artboard1" x="0" y="0" width="1200" height="1080" style="fill:rgb(46,46,46);"/>
  <text x="510.246" y="798.743" style="font-family: Oxygen-Bold, Oxygen; font-weight: 700; font-size: 48px; fill: white; white-space: pre;">Dolphin</text>
  <path d="M 837.878 638.054 C 813.022 592.187 791.643 559.398 756.025 526.099 C 744.569 515.385 733.718 505.814 722.418 497.222 L 722.429 497.225 C 722.429 497.225 722.34 497.163 722.175 497.041 C 721.973 496.888 721.767 496.731 721.565 496.577 C 717.369 493.34 699.568 478.36 705.894 461.823 C 712.833 443.673 751.924 435.562 751.924 435.562 C 751.924 435.562 732.762 429.053 699.233 431.202 C 667.767 433.222 639.496 451.622 634.209 454.209 C 617.261 449.357 597.926 445.08 575.314 441.243 C 497.098 427.973 430.9 449.127 397.683 472.183 C 354.146 502.398 355.351 530.557 351.762 544.64 C 349.179 554.776 322.916 574.907 331.843 585.874 C 337.413 592.716 355.948 583.425 370.901 577.275 C 386.621 570.808 387.833 567.29 430.796 560.88 C 450.562 557.932 471.364 557.084 486.851 556.954 C 492.878 569.682 507.863 595.84 533.826 608.387 C 568.88 625.329 612.674 625.116 612.674 625.116 C 612.674 625.116 587.507 614.662 572.025 599.18 C 561.49 588.644 558.968 572.641 558.431 563.491 L 558.525 563.499 C 583.892 568.319 606.048 571.796 659.036 592.09 C 705.4 609.847 737.068 635.668 737.068 635.668 C 737.068 635.668 704.506 595.065 649.556 567.962 C 604.436 545.706 567.389 534.712 516.062 532.222 C 459.958 529.501 418.619 536.704 418.619 536.704 C 418.619 536.704 419.776 511.775 462.13 491.909 C 498.961 474.631 556.903 471.74 623.398 488.704 C 717.345 512.672 749.386 553.48 789.797 595.654 C 832.808 640.541 870 716.082 870 716.082 C 870 716.082 858.533 676.168 837.878 638.057 L 837.878 638.054 Z" style="fill:white;fill-rule:nonzero;"/>
</svg>