<?xml version="1.0" encoding="utf-8"?>
<svg width="100%" height="100%" viewBox="0 0 1200 1080" version="1.1" xmlns="http://www.w3.org/2000/svg" style="fill-rule:evenodd;clip-rule:evenodd;stroke-linejoin:round;stroke-miterlimit:2;">
  <rect id="Artboard1" x="0" y="0" width="1200" height="1080" style="fill:rgb(46,46,46);"/>
  <path d="M 456.562 798.705 L 456.562 764.369 L 476.883 764.369 L 476.648 769.408 L 462.867 769.408 L 462.867 779.158 L 475.969 779.158 L 475.969 784.151 L 462.867 784.151 L 462.867 798.705 L 456.562 798.705 Z" style="fill:white;fill-rule:nonzero;"/>
  <path d="M 481.969 798.705 L 481.969 772.948 L 488.109 772.948 L 488.109 798.705 L 481.969 798.705 Z M 481.969 769.198 L 481.969 763.948 L 488.133 763.948 L 488.133 769.198 L 481.969 769.198 Z" style="fill:white;fill-rule:nonzero;"/>
  <path d="M 503.531 799.057 C 501.766 799.057 500.301 798.85 499.137 798.436 C 497.973 798.022 497.055 797.362 496.383 796.455 C 495.711 795.549 495.242 794.471 494.977 793.221 C 494.711 791.971 494.578 790.416 494.578 788.557 L 494.578 763.455 L 500.719 763.057 L 500.719 788.44 C 500.719 790.752 500.992 792.319 501.539 793.139 C 502.086 793.959 503.148 794.369 504.727 794.369 C 505.508 794.369 506.5 794.283 507.703 794.112 L 507.867 798.494 C 507.852 798.494 507.66 798.533 507.293 798.612 C 506.926 798.69 506.574 798.756 506.238 798.811 C 505.902 798.866 505.477 798.92 504.961 798.975 C 504.445 799.03 503.969 799.057 503.531 799.057 Z" style="fill:white;fill-rule:nonzero;"/>
  <path d="M 522.68 799.198 C 518.539 799.198 515.316 798.006 513.012 795.623 C 510.707 793.241 509.555 789.948 509.555 785.744 C 509.555 781.651 510.641 778.393 512.812 775.971 C 514.984 773.549 517.945 772.33 521.695 772.315 C 525.242 772.315 527.996 773.424 529.957 775.643 C 531.918 777.862 532.898 780.807 532.898 784.479 C 532.898 784.744 532.894 785.174 532.887 785.768 C 532.879 786.362 532.875 786.799 532.875 787.08 L 515.742 787.08 C 515.805 789.487 516.465 791.35 517.723 792.67 C 518.98 793.991 520.711 794.651 522.914 794.651 C 525.727 794.651 528.43 793.916 531.023 792.448 L 531.891 796.807 C 529.312 798.401 526.242 799.198 522.68 799.198 Z M 515.859 783.213 L 527.109 783.213 C 527.109 781.119 526.633 779.51 525.68 778.385 C 524.727 777.26 523.406 776.698 521.719 776.698 C 520.141 776.698 518.809 777.244 517.723 778.338 C 516.637 779.432 516.016 781.057 515.859 783.213 Z" style="fill:white;fill-rule:nonzero;"/>
  <path d="M 551.156 798.705 L 551.156 764.369 L 558.656 764.369 L 569.039 789.166 L 579.492 764.369 L 586.898 764.369 L 586.898 798.705 L 581.039 798.705 L 581.039 781.737 L 581.227 772.01 L 580.359 774.588 L 571.57 796.362 L 566.133 796.362 L 557.531 774.471 L 556.664 771.893 L 556.875 781.83 L 556.875 798.705 L 551.156 798.705 Z" style="fill:white;fill-rule:nonzero;"/>
  <path d="M 600.516 799.198 C 598.125 799.198 596.191 798.537 594.715 797.217 C 593.238 795.897 592.5 793.994 592.5 791.51 C 592.5 788.838 593.375 786.858 595.125 785.569 C 596.875 784.28 599.516 783.463 603.047 783.119 C 603.531 783.057 604.055 782.994 604.617 782.932 C 605.18 782.869 605.812 782.807 606.516 782.744 C 607.219 782.682 607.773 782.627 608.18 782.58 L 608.18 781.221 C 608.18 779.658 607.82 778.522 607.102 777.811 C 606.383 777.1 605.289 776.744 603.82 776.744 C 601.727 776.744 599.141 777.33 596.062 778.502 C 596.047 778.455 595.789 777.744 595.289 776.369 C 594.789 774.994 594.531 774.291 594.516 774.26 C 597.547 772.963 600.828 772.315 604.359 772.315 C 607.828 772.315 610.352 773.069 611.93 774.576 C 613.508 776.084 614.297 778.526 614.297 781.901 L 614.297 798.705 L 609.75 798.705 C 609.734 798.643 609.562 798.119 609.234 797.135 C 608.906 796.151 608.742 795.627 608.742 795.565 C 607.461 796.815 606.207 797.733 604.98 798.319 C 603.754 798.905 602.266 799.198 600.516 799.198 Z M 602.18 794.838 C 603.602 794.838 604.84 794.498 605.894 793.819 C 606.949 793.139 607.703 792.315 608.156 791.346 L 608.156 786.377 C 608.109 786.377 607.699 786.408 606.926 786.471 C 606.152 786.533 605.734 786.565 605.672 786.565 C 603.187 786.783 601.367 787.252 600.211 787.971 C 599.055 788.69 598.477 789.846 598.477 791.44 C 598.477 792.533 598.797 793.373 599.437 793.959 C 600.078 794.545 600.992 794.838 602.18 794.838 Z" style="fill:white;fill-rule:nonzero;"/>
  <path d="M 620.484 798.705 L 620.484 772.948 L 625.43 772.948 L 626.109 776.205 C 628.734 773.612 631.648 772.315 634.852 772.315 C 637.852 772.315 640.098 773.178 641.59 774.905 C 643.082 776.631 643.828 779.135 643.828 782.416 L 643.828 798.705 L 637.664 798.705 L 637.664 783.166 C 637.648 781.088 637.312 779.533 636.656 778.502 C 636 777.471 634.82 776.955 633.117 776.955 C 631.789 776.955 630.574 777.295 629.473 777.975 C 628.371 778.655 627.57 779.51 627.07 780.541 C 626.773 781.76 626.625 783.635 626.625 786.166 L 626.625 798.705 L 620.484 798.705 Z" style="fill:white;fill-rule:nonzero;"/>
  <path d="M 656.672 799.198 C 654.281 799.198 652.348 798.537 650.871 797.217 C 649.394 795.897 648.656 793.994 648.656 791.51 C 648.656 788.838 649.531 786.858 651.281 785.569 C 653.031 784.28 655.672 783.463 659.203 783.119 C 659.687 783.057 660.211 782.994 660.773 782.932 C 661.336 782.869 661.969 782.807 662.672 782.744 C 663.375 782.682 663.93 782.627 664.336 782.58 L 664.336 781.221 C 664.336 779.658 663.977 778.522 663.258 777.811 C 662.539 777.1 661.445 776.744 659.977 776.744 C 657.883 776.744 655.297 777.33 652.219 778.502 C 652.203 778.455 651.945 777.744 651.445 776.369 C 650.945 774.994 650.687 774.291 650.672 774.26 C 653.703 772.963 656.984 772.315 660.516 772.315 C 663.984 772.315 666.508 773.069 668.086 774.576 C 669.664 776.084 670.453 778.526 670.453 781.901 L 670.453 798.705 L 665.906 798.705 C 665.891 798.643 665.719 798.119 665.391 797.135 C 665.062 796.151 664.898 795.627 664.898 795.565 C 663.617 796.815 662.363 797.733 661.137 798.319 C 659.91 798.905 658.422 799.198 656.672 799.198 Z M 658.336 794.838 C 659.758 794.838 660.996 794.498 662.051 793.819 C 663.105 793.139 663.859 792.315 664.312 791.346 L 664.312 786.377 C 664.266 786.377 663.855 786.408 663.082 786.471 C 662.309 786.533 661.891 786.565 661.828 786.565 C 659.344 786.783 657.523 787.252 656.367 787.971 C 655.211 788.69 654.633 789.846 654.633 791.44 C 654.633 792.533 654.953 793.373 655.594 793.959 C 656.234 794.545 657.148 794.838 658.336 794.838 Z" style="fill:white;fill-rule:nonzero;"/>
  <path d="M 681.797 810.237 L 681.445 805.268 L 684.562 805.268 C 688.172 805.268 690.695 804.787 692.133 803.826 C 693.57 802.866 694.289 801.104 694.289 798.541 C 694.289 797.494 694.242 796.362 694.148 795.143 C 693.742 795.705 693.355 796.17 692.988 796.537 C 692.621 796.905 692.16 797.268 691.605 797.627 C 691.051 797.987 690.387 798.256 689.613 798.436 C 688.84 798.616 687.961 798.705 686.977 798.705 C 683.57 798.705 680.769 797.479 678.574 795.026 C 676.379 792.573 675.281 789.408 675.281 785.533 C 675.281 783.471 675.586 781.592 676.195 779.897 C 676.805 778.201 677.633 776.807 678.68 775.713 C 679.727 774.619 680.934 773.78 682.301 773.194 C 683.668 772.608 685.125 772.315 686.672 772.315 C 690.125 772.315 692.695 773.573 694.383 776.088 L 694.805 772.948 L 700.289 772.948 L 700.289 796.877 C 700.289 798.158 700.227 799.311 700.102 800.334 C 699.977 801.358 699.758 802.342 699.445 803.287 C 699.133 804.233 698.723 805.057 698.215 805.76 C 697.707 806.463 697.07 807.104 696.305 807.682 C 695.539 808.26 694.637 808.733 693.598 809.1 C 692.559 809.467 691.352 809.748 689.977 809.944 C 688.602 810.139 687.055 810.237 685.336 810.237 L 681.797 810.237 Z M 687.961 794.416 C 692.195 794.416 694.336 791.58 694.383 785.908 L 694.383 785.018 C 694.352 782.471 693.82 780.502 692.789 779.112 C 691.758 777.721 690.25 777.018 688.266 777.002 C 686.016 777.002 684.312 777.772 683.156 779.311 C 682 780.85 681.422 782.924 681.422 785.533 C 681.422 788.049 682.004 790.158 683.168 791.862 C 684.332 793.565 685.93 794.416 687.961 794.416 Z" style="fill:white;fill-rule:nonzero;"/>
  <path d="M 718.242 799.198 C 714.102 799.198 710.879 798.006 708.574 795.623 C 706.269 793.241 705.117 789.948 705.117 785.744 C 705.117 781.651 706.203 778.393 708.375 775.971 C 710.547 773.549 713.508 772.33 717.258 772.315 C 720.805 772.315 723.559 773.424 725.519 775.643 C 727.48 777.862 728.461 780.807 728.461 784.479 C 728.461 784.744 728.457 785.174 728.449 785.768 C 728.441 786.362 728.437 786.799 728.437 787.08 L 711.305 787.08 C 711.367 789.487 712.027 791.35 713.285 792.67 C 714.543 793.991 716.273 794.651 718.477 794.651 C 721.289 794.651 723.992 793.916 726.586 792.448 L 727.453 796.807 C 724.875 798.401 721.805 799.198 718.242 799.198 Z M 711.422 783.213 L 722.672 783.213 C 722.672 781.119 722.195 779.51 721.242 778.385 C 720.289 777.26 718.969 776.698 717.281 776.698 C 715.703 776.698 714.371 777.244 713.285 778.338 C 712.199 779.432 711.578 781.057 711.422 783.213 Z" style="fill:white;fill-rule:nonzero;"/>
  <path d="M 733.477 798.705 L 733.477 772.948 L 738.633 772.948 L 739.43 776.885 C 741.117 774.182 743.562 772.83 746.766 772.83 C 747.437 772.83 747.984 772.862 748.406 772.924 L 748.312 778.057 C 747.687 777.963 747.039 777.916 746.367 777.916 C 744.102 777.916 742.41 778.518 741.293 779.721 C 740.176 780.924 739.617 782.596 739.617 784.737 L 739.617 798.705 L 733.477 798.705 Z" style="fill:white;fill-rule:nonzero;"/>
  <path d="M 480 359.963 C 457.938 359.963 440 377.9 440 399.963 L 440 539.963 L 412 539.963 C 405.375 539.963 400 545.338 400 551.963 C 400 578.463 421.5 599.963 448 599.963 L 600 599.963 L 600 539.963 L 480 539.963 L 480 399.963 L 680 399.963 L 680 419.963 L 720 419.963 L 720 399.963 C 720 377.9 702.063 359.963 680 359.963 L 480 359.963 Z M 720 439.963 L 650 439.963 C 633.438 439.963 620 453.4 620 469.963 L 620 649.963 C 620 666.525 633.438 679.963 650 679.963 L 770 679.963 C 786.563 679.963 800 666.525 800 649.963 L 800 519.963 L 740 519.963 C 728.938 519.963 720 511.025 720 499.963 L 720 439.963 Z M 740 439.963 L 740 499.963 L 800 499.963 L 740 439.963 Z" style="fill:white;fill-rule:nonzero;"/>
</svg>