<?xml version="1.0" encoding="utf-8"?>
<svg width="100%" height="100%" viewBox="0 0 1200 1080" version="1.1" xmlns="http://www.w3.org/2000/svg" style="fill-rule:evenodd;clip-rule:evenodd;stroke-linejoin:round;stroke-miterlimit:2;">
  <rect id="Artboard1" x="0" y="0" width="1200" height="1080" style="fill:rgb(46,46,46);"/>
  <path d="M 415.523 798.743 L 415.523 764.314 L 428.25 764.314 C 429.984 764.314 431.488 764.392 432.762 764.548 C 434.035 764.704 435.246 764.989 436.394 765.404 C 437.543 765.818 438.473 766.376 439.184 767.079 C 439.894 767.782 440.457 768.7 440.871 769.833 C 441.285 770.966 441.492 772.306 441.492 773.853 C 441.492 778.415 439.422 781.415 435.281 782.853 C 436.125 783.806 437.172 785.571 438.422 788.15 L 443.531 798.743 L 436.594 798.743 L 432.586 789.767 C 431.07 786.548 430.133 784.642 429.773 784.048 C 429.508 784.032 428.625 784.025 427.125 784.025 L 421.805 783.978 L 421.805 798.743 L 415.523 798.743 Z M 428.812 779.431 C 431.25 779.431 433 778.997 434.062 778.13 C 435.125 777.263 435.656 775.868 435.656 773.946 C 435.656 772.259 435.117 771.017 434.039 770.22 C 432.961 769.423 431.312 769.025 429.094 769.025 L 421.805 769.025 L 421.805 779.407 C 422.039 779.407 423.203 779.411 425.297 779.419 C 427.391 779.427 428.562 779.431 428.812 779.431 Z" style="fill:white;fill-rule:nonzero;"/>
  <path d="M 459.68 799.236 C 455.539 799.236 452.316 798.044 450.012 795.661 C 447.707 793.279 446.555 789.986 446.555 785.782 C 446.555 781.689 447.641 778.431 449.812 776.009 C 451.984 773.587 454.945 772.368 458.695 772.353 C 462.242 772.353 464.996 773.462 466.957 775.681 C 468.918 777.9 469.898 780.845 469.898 784.517 C 469.898 784.782 469.894 785.212 469.887 785.806 C 469.879 786.4 469.875 786.837 469.875 787.118 L 452.742 787.118 C 452.805 789.525 453.465 791.388 454.723 792.708 C 455.98 794.029 457.711 794.689 459.914 794.689 C 462.727 794.689 465.43 793.954 468.023 792.486 L 468.891 796.845 C 466.312 798.439 463.242 799.236 459.68 799.236 Z M 452.859 783.251 L 464.109 783.251 C 464.109 781.157 463.633 779.548 462.68 778.423 C 461.727 777.298 460.406 776.736 458.719 776.736 C 457.141 776.736 455.809 777.282 454.723 778.376 C 453.637 779.47 453.016 781.095 452.859 783.251 Z" style="fill:white;fill-rule:nonzero;"/>
  <path d="M 485.18 799.095 C 483.43 799.095 481.973 798.888 480.809 798.474 C 479.644 798.06 478.734 797.407 478.078 796.517 C 477.422 795.626 476.957 794.575 476.684 793.364 C 476.41 792.154 476.273 790.657 476.273 788.876 L 476.273 776.712 L 472.055 776.712 L 472.289 773.384 L 476.695 772.986 L 478.664 766.001 L 482.414 765.978 L 482.414 772.986 L 488.812 772.986 L 488.812 776.712 L 482.414 776.712 L 482.414 788.993 C 482.414 790.946 482.695 792.337 483.258 793.165 C 483.82 793.993 484.859 794.407 486.375 794.407 C 487.266 794.407 488.219 794.329 489.234 794.173 L 489.398 798.579 C 489.367 798.579 489.176 798.614 488.824 798.685 C 488.473 798.755 488.137 798.818 487.816 798.872 C 487.496 798.927 487.086 798.978 486.586 799.025 C 486.086 799.071 485.617 799.095 485.18 799.095 Z" style="fill:white;fill-rule:nonzero;"/>
  <path d="M 493.734 798.743 L 493.734 772.986 L 498.891 772.986 L 499.687 776.923 C 501.375 774.22 503.82 772.868 507.023 772.868 C 507.695 772.868 508.242 772.9 508.664 772.962 L 508.57 778.095 C 507.945 778.001 507.297 777.954 506.625 777.954 C 504.359 777.954 502.668 778.556 501.551 779.759 C 500.434 780.962 499.875 782.634 499.875 784.775 L 499.875 798.743 L 493.734 798.743 Z" style="fill:white;fill-rule:nonzero;"/>
  <path d="M 523.406 794.571 C 525.484 794.571 527.047 793.814 528.094 792.298 C 529.141 790.782 529.664 788.611 529.664 785.782 C 529.664 782.923 529.141 780.743 528.094 779.243 C 527.047 777.743 525.469 776.993 523.359 776.993 C 521.281 776.993 519.715 777.747 518.66 779.255 C 517.605 780.763 517.078 782.946 517.078 785.806 C 517.078 788.618 517.609 790.782 518.672 792.298 C 519.734 793.814 521.312 794.571 523.406 794.571 Z M 523.242 799.236 C 519.43 799.236 516.43 798.001 514.242 795.532 C 512.055 793.064 510.961 789.814 510.961 785.782 C 510.961 781.626 512.055 778.349 514.242 775.95 C 516.43 773.552 519.516 772.353 523.5 772.353 C 527.344 772.353 530.355 773.575 532.535 776.021 C 534.715 778.466 535.805 781.72 535.805 785.782 C 535.805 789.892 534.703 793.161 532.5 795.591 C 530.297 798.021 527.211 799.236 523.242 799.236 Z" style="fill:white;fill-rule:nonzero;"/>
  <path d="M 537.633 798.743 L 550.266 764.384 L 557.18 764.384 L 569.625 798.743 L 563.109 798.743 L 559.711 789.04 L 547.687 789.04 L 544.266 798.743 L 537.633 798.743 Z M 549.281 784.306 L 558.094 784.306 C 555.281 775.29 553.836 770.634 553.758 770.337 L 549.281 784.306 Z" style="fill:white;fill-rule:nonzero;"/>
  <path d="M 572.695 798.743 L 572.695 772.986 L 577.852 772.986 L 578.648 776.923 C 580.336 774.22 582.781 772.868 585.984 772.868 C 586.656 772.868 587.203 772.9 587.625 772.962 L 587.531 778.095 C 586.906 778.001 586.258 777.954 585.586 777.954 C 583.32 777.954 581.629 778.556 580.512 779.759 C 579.394 780.962 578.836 782.634 578.836 784.775 L 578.836 798.743 L 572.695 798.743 Z" style="fill:white;fill-rule:nonzero;"/>
  <path d="M 602.414 799.236 C 598.477 799.236 595.41 798.064 593.215 795.72 C 591.019 793.376 589.922 790.025 589.922 785.665 C 589.922 781.446 591.074 778.173 593.379 775.845 C 595.684 773.517 598.719 772.353 602.484 772.353 C 605.5 772.353 608.047 773.001 610.125 774.298 L 608.672 778.681 C 606.547 777.571 604.57 777.017 602.742 777.017 C 600.664 777.017 599.027 777.759 597.832 779.243 C 596.637 780.728 596.039 782.892 596.039 785.736 C 596.039 788.611 596.629 790.798 597.809 792.298 C 598.988 793.798 600.656 794.548 602.812 794.548 C 605.062 794.548 607.227 793.884 609.305 792.556 L 609.891 797.22 C 608.812 797.939 607.695 798.454 606.539 798.767 C 605.383 799.079 604.008 799.236 602.414 799.236 Z" style="fill:white;fill-rule:nonzero;"/>
  <path d="M 614.766 798.743 L 614.766 763.493 L 620.906 763.095 L 620.906 770.525 C 620.906 770.884 620.883 771.88 620.836 773.513 C 620.789 775.146 620.766 775.978 620.766 776.009 C 622.812 773.571 625.562 772.353 629.016 772.353 C 631.891 772.353 634.121 773.177 635.707 774.825 C 637.293 776.474 638.086 779.009 638.086 782.431 L 638.086 798.743 L 631.945 798.743 L 631.945 783.111 C 631.945 781.001 631.609 779.454 630.937 778.47 C 630.266 777.486 629.125 776.993 627.516 776.993 C 626.141 776.993 624.922 777.341 623.859 778.036 C 622.797 778.732 622 779.626 621.469 780.72 C 621.094 782.157 620.906 784.032 620.906 786.345 L 620.906 798.743 L 614.766 798.743 Z" style="fill:white;fill-rule:nonzero;"/>
  <path d="M 668.109 799.236 C 664.297 799.236 661.195 798.196 658.805 796.118 C 656.414 794.04 655.219 791.298 655.219 787.892 C 655.219 786.798 655.336 785.751 655.57 784.751 C 655.805 783.751 656.164 782.775 656.648 781.821 C 657.133 780.868 657.617 780.025 658.102 779.29 C 658.586 778.556 659.211 777.681 659.977 776.665 L 669.727 764.361 L 676.992 764.361 L 666.352 777.79 C 667.492 777.4 668.445 777.204 669.211 777.204 C 672.57 777.204 675.32 778.208 677.461 780.216 C 679.602 782.224 680.672 784.837 680.672 788.056 C 680.672 791.4 679.5 794.099 677.156 796.154 C 674.812 798.208 671.797 799.236 668.109 799.236 Z M 667.828 794.548 C 669.891 794.548 671.504 793.958 672.668 792.779 C 673.832 791.599 674.414 790.048 674.414 788.126 C 674.414 786.111 673.867 784.521 672.773 783.357 C 671.68 782.193 670.055 781.611 667.898 781.611 C 665.711 781.611 664.102 782.196 663.07 783.368 C 662.039 784.54 661.523 786.142 661.523 788.173 C 661.523 790.095 662.07 791.638 663.164 792.802 C 664.258 793.966 665.812 794.548 667.828 794.548 Z" style="fill:white;fill-rule:nonzero;"/>
  <path d="M 699.586 798.743 L 699.586 791.126 L 684.094 791.126 L 684.094 786.954 L 697.992 764.571 L 705.797 764.571 L 705.797 786.486 L 710.016 786.486 L 709.711 791.126 L 705.797 791.126 L 705.797 798.743 L 699.586 798.743 Z M 690.187 786.509 L 699.586 786.509 L 699.586 770.571 L 690.187 786.509 Z" style="fill:white;fill-rule:nonzero;"/>
  <rect x="695.083" y="825.208" width="12.563" height="4.781" style="fill:white;fill-rule:nonzero;" transform="matrix(1, 0, 0, 1, 17.862101, -41.676498)"/>
  <path d="M 730.875 798.743 L 730.875 764.407 L 741.586 764.407 C 746.133 764.407 749.523 765.071 751.758 766.4 C 753.992 767.728 755.109 769.939 755.109 773.032 C 755.109 773.532 755.078 774.025 755.016 774.509 C 754.953 774.993 754.812 775.544 754.594 776.161 C 754.375 776.779 754.086 777.337 753.727 777.837 C 753.367 778.337 752.867 778.825 752.227 779.302 C 751.586 779.779 750.836 780.15 749.977 780.415 C 752.102 780.931 753.727 781.919 754.852 783.38 C 755.977 784.841 756.539 786.642 756.539 788.782 C 756.539 792.017 755.394 794.486 753.105 796.189 C 750.816 797.892 747.648 798.743 743.602 798.743 L 730.875 798.743 Z M 737.227 794.15 L 742.734 794.15 C 747.609 794.15 750.047 792.243 750.047 788.431 C 750.047 786.509 749.437 785.126 748.219 784.282 C 747 783.439 745.117 783.017 742.57 783.017 L 737.227 783.017 L 737.227 794.15 Z M 737.227 778.587 L 742.664 778.587 C 746.867 778.587 748.969 776.986 748.969 773.782 C 748.969 771.986 748.363 770.751 747.152 770.079 C 745.941 769.407 744.016 769.071 741.375 769.071 L 737.227 769.071 L 737.227 778.587 Z" style="fill:white;fill-rule:nonzero;"/>
  <path d="M 761.672 798.743 L 761.672 772.986 L 767.812 772.986 L 767.812 798.743 L 761.672 798.743 Z M 761.672 769.236 L 761.672 763.986 L 767.836 763.986 L 767.836 769.236 L 761.672 769.236 Z" style="fill:white;fill-rule:nonzero;"/>
  <path d="M 784.5 799.095 C 782.75 799.095 781.293 798.888 780.129 798.474 C 778.965 798.06 778.055 797.407 777.398 796.517 C 776.742 795.626 776.277 794.575 776.004 793.364 C 775.73 792.154 775.594 790.657 775.594 788.876 L 775.594 776.712 L 771.375 776.712 L 771.609 773.384 L 776.016 772.986 L 777.984 766.001 L 781.734 765.978 L 781.734 772.986 L 788.133 772.986 L 788.133 776.712 L 781.734 776.712 L 781.734 788.993 C 781.734 790.946 782.016 792.337 782.578 793.165 C 783.141 793.993 784.18 794.407 785.695 794.407 C 786.586 794.407 787.539 794.329 788.555 794.173 L 788.719 798.579 C 788.687 798.579 788.496 798.614 788.144 798.685 C 787.793 798.755 787.457 798.818 787.137 798.872 C 786.816 798.927 786.406 798.978 785.906 799.025 C 785.406 799.071 784.937 799.095 784.5 799.095 Z" style="fill:white;fill-rule:nonzero;"/>
  <path d="M 509.7 410.8 L 537 444.4 L 482.4 444.4 L 469.8 494.8 L 436.2 494.8 L 448.8 444.4 L 415.2 444.4 L 390 545.2 L 457.2 545.2 L 448.8 578.8 L 507.6 578.8 L 463.5 629.2 L 512.85 629.2 L 553.8 578.8 L 646.2 578.8 L 687.15 629.2 L 736.5 629.2 L 692.4 578.8 L 751.2 578.8 L 742.8 545.2 L 810 545.2 L 784.8 444.4 L 751.2 444.4 L 763.8 494.8 L 730.2 494.8 L 717.6 444.4 L 663 444.4 L 690.3 410.8 L 654.6 410.8 L 625.2 444.4 L 574.8 444.4 L 545.4 410.8 L 509.7 410.8 Z M 513.9 478 L 547.5 478 L 547.5 511.6 L 513.9 511.6 L 513.9 478 Z M 652.588 478 L 686.188 478 L 686.188 511.6 L 652.588 511.6 L 652.588 478 Z" style="fill:white;fill-rule:nonzero;"/>
</svg>