<?xml version="1.0" encoding="utf-8"?>
<svg width="100%" height="100%" viewBox="0 0 1200 1080" version="1.1" xmlns="http://www.w3.org/2000/svg" style="fill-rule:evenodd;clip-rule:evenodd;stroke-linejoin:round;stroke-miterlimit:2;">
  <rect id="Artboard1" x="0" y="0" width="1200" height="1080" style="fill:rgb(46,46,46);"/>
  <path d="M 419.344 798.743 L 419.344 764.314 L 432.07 764.314 C 433.805 764.314 435.309 764.392 436.582 764.548 C 437.855 764.704 439.066 764.989 440.215 765.404 C 441.363 765.818 442.293 766.376 443.004 767.079 C 443.715 767.782 444.277 768.7 444.691 769.833 C 445.105 770.966 445.312 772.306 445.312 773.853 C 445.312 778.415 443.242 781.415 439.102 782.853 C 439.945 783.806 440.992 785.571 442.242 788.15 L 447.352 798.743 L 440.414 798.743 L 436.406 789.767 C 434.891 786.548 433.953 784.642 433.594 784.048 C 433.328 784.032 432.445 784.025 430.945 784.025 L 425.625 783.978 L 425.625 798.743 L 419.344 798.743 Z M 432.633 779.431 C 435.07 779.431 436.82 778.997 437.883 778.13 C 438.945 777.263 439.477 775.868 439.477 773.946 C 439.477 772.259 438.937 771.017 437.859 770.22 C 436.781 769.423 435.133 769.025 432.914 769.025 L 425.625 769.025 L 425.625 779.407 C 425.859 779.407 427.023 779.411 429.117 779.419 C 431.211 779.427 432.383 779.431 432.633 779.431 Z" style="fill:white;fill-rule:nonzero;"/>
  <path d="M 463.5 799.236 C 459.359 799.236 456.137 798.044 453.832 795.661 C 451.527 793.279 450.375 789.986 450.375 785.782 C 450.375 781.689 451.461 778.431 453.633 776.009 C 455.805 773.587 458.766 772.368 462.516 772.353 C 466.062 772.353 468.816 773.462 470.777 775.681 C 472.738 777.9 473.719 780.845 473.719 784.517 C 473.719 784.782 473.715 785.212 473.707 785.806 C 473.699 786.4 473.695 786.837 473.695 787.118 L 456.562 787.118 C 456.625 789.525 457.285 791.388 458.543 792.708 C 459.801 794.029 461.531 794.689 463.734 794.689 C 466.547 794.689 469.25 793.954 471.844 792.486 L 472.711 796.845 C 470.133 798.439 467.062 799.236 463.5 799.236 Z M 456.68 783.251 L 467.93 783.251 C 467.93 781.157 467.453 779.548 466.5 778.423 C 465.547 777.298 464.227 776.736 462.539 776.736 C 460.961 776.736 459.629 777.282 458.543 778.376 C 457.457 779.47 456.836 781.095 456.68 783.251 Z" style="fill:white;fill-rule:nonzero;"/>
  <path d="M 489 799.095 C 487.25 799.095 485.793 798.888 484.629 798.474 C 483.465 798.06 482.555 797.407 481.898 796.517 C 481.242 795.626 480.777 794.575 480.504 793.364 C 480.23 792.154 480.094 790.657 480.094 788.876 L 480.094 776.712 L 475.875 776.712 L 476.109 773.384 L 480.516 772.986 L 482.484 766.001 L 486.234 765.978 L 486.234 772.986 L 492.633 772.986 L 492.633 776.712 L 486.234 776.712 L 486.234 788.993 C 486.234 790.946 486.516 792.337 487.078 793.165 C 487.641 793.993 488.68 794.407 490.195 794.407 C 491.086 794.407 492.039 794.329 493.055 794.173 L 493.219 798.579 C 493.187 798.579 492.996 798.614 492.644 798.685 C 492.293 798.755 491.957 798.818 491.637 798.872 C 491.316 798.927 490.906 798.978 490.406 799.025 C 489.906 799.071 489.437 799.095 489 799.095 Z" style="fill:white;fill-rule:nonzero;"/>
  <path d="M 497.555 798.743 L 497.555 772.986 L 502.711 772.986 L 503.508 776.923 C 505.195 774.22 507.641 772.868 510.844 772.868 C 511.516 772.868 512.062 772.9 512.484 772.962 L 512.391 778.095 C 511.766 778.001 511.117 777.954 510.445 777.954 C 508.18 777.954 506.488 778.556 505.371 779.759 C 504.254 780.962 503.695 782.634 503.695 784.775 L 503.695 798.743 L 497.555 798.743 Z" style="fill:white;fill-rule:nonzero;"/>
  <path d="M 527.227 794.571 C 529.305 794.571 530.867 793.814 531.914 792.298 C 532.961 790.782 533.484 788.611 533.484 785.782 C 533.484 782.923 532.961 780.743 531.914 779.243 C 530.867 777.743 529.289 776.993 527.18 776.993 C 525.102 776.993 523.535 777.747 522.48 779.255 C 521.426 780.763 520.898 782.946 520.898 785.806 C 520.898 788.618 521.43 790.782 522.492 792.298 C 523.555 793.814 525.133 794.571 527.227 794.571 Z M 527.062 799.236 C 523.25 799.236 520.25 798.001 518.062 795.532 C 515.875 793.064 514.781 789.814 514.781 785.782 C 514.781 781.626 515.875 778.349 518.062 775.95 C 520.25 773.552 523.336 772.353 527.32 772.353 C 531.164 772.353 534.176 773.575 536.355 776.021 C 538.535 778.466 539.625 781.72 539.625 785.782 C 539.625 789.892 538.523 793.161 536.32 795.591 C 534.117 798.021 531.031 799.236 527.062 799.236 Z" style="fill:white;fill-rule:nonzero;"/>
  <path d="M 541.453 798.743 L 554.086 764.384 L 561 764.384 L 573.445 798.743 L 566.93 798.743 L 563.531 789.04 L 551.508 789.04 L 548.086 798.743 L 541.453 798.743 Z M 553.102 784.306 L 561.914 784.306 C 559.102 775.29 557.656 770.634 557.578 770.337 L 553.102 784.306 Z" style="fill:white;fill-rule:nonzero;"/>
  <path d="M 576.516 798.743 L 576.516 772.986 L 581.672 772.986 L 582.469 776.923 C 584.156 774.22 586.602 772.868 589.805 772.868 C 590.477 772.868 591.023 772.9 591.445 772.962 L 591.352 778.095 C 590.727 778.001 590.078 777.954 589.406 777.954 C 587.141 777.954 585.449 778.556 584.332 779.759 C 583.215 780.962 582.656 782.634 582.656 784.775 L 582.656 798.743 L 576.516 798.743 Z" style="fill:white;fill-rule:nonzero;"/>
  <path d="M 606.234 799.236 C 602.297 799.236 599.23 798.064 597.035 795.72 C 594.84 793.376 593.742 790.025 593.742 785.665 C 593.742 781.446 594.894 778.173 597.199 775.845 C 599.504 773.517 602.539 772.353 606.305 772.353 C 609.32 772.353 611.867 773.001 613.945 774.298 L 612.492 778.681 C 610.367 777.571 608.391 777.017 606.562 777.017 C 604.484 777.017 602.848 777.759 601.652 779.243 C 600.457 780.728 599.859 782.892 599.859 785.736 C 599.859 788.611 600.449 790.798 601.629 792.298 C 602.809 793.798 604.477 794.548 606.633 794.548 C 608.883 794.548 611.047 793.884 613.125 792.556 L 613.711 797.22 C 612.633 797.939 611.516 798.454 610.359 798.767 C 609.203 799.079 607.828 799.236 606.234 799.236 Z" style="fill:white;fill-rule:nonzero;"/>
  <path d="M 618.586 798.743 L 618.586 763.493 L 624.727 763.095 L 624.727 770.525 C 624.727 770.884 624.703 771.88 624.656 773.513 C 624.609 775.146 624.586 775.978 624.586 776.009 C 626.633 773.571 629.383 772.353 632.836 772.353 C 635.711 772.353 637.941 773.177 639.527 774.825 C 641.113 776.474 641.906 779.009 641.906 782.431 L 641.906 798.743 L 635.766 798.743 L 635.766 783.111 C 635.766 781.001 635.43 779.454 634.758 778.47 C 634.086 777.486 632.945 776.993 631.336 776.993 C 629.961 776.993 628.742 777.341 627.68 778.036 C 626.617 778.732 625.82 779.626 625.289 780.72 C 624.914 782.157 624.727 784.032 624.727 786.345 L 624.727 798.743 L 618.586 798.743 Z" style="fill:white;fill-rule:nonzero;"/>
  <path d="M 668.883 799.236 C 666.867 799.236 664.973 798.974 663.199 798.45 C 661.426 797.927 660.023 797.22 658.992 796.329 L 660.68 791.9 C 661.539 792.618 662.727 793.208 664.242 793.669 C 665.758 794.13 667.312 794.361 668.906 794.361 C 670.703 794.361 672.152 793.876 673.254 792.907 C 674.355 791.939 674.906 790.673 674.906 789.111 C 674.906 788.142 674.754 787.306 674.449 786.603 C 674.144 785.9 673.742 785.337 673.242 784.915 C 672.742 784.493 672.074 784.154 671.238 783.896 C 670.402 783.638 669.547 783.462 668.672 783.368 C 667.797 783.275 666.742 783.22 665.508 783.204 C 665.461 783.204 665.234 783.2 664.828 783.193 C 664.422 783.185 664.195 783.181 664.148 783.181 L 664.148 778.446 L 665.461 778.446 C 666.82 778.446 667.988 778.376 668.965 778.236 C 669.941 778.095 670.848 777.853 671.684 777.509 C 672.519 777.165 673.152 776.657 673.582 775.986 C 674.012 775.314 674.227 774.486 674.227 773.501 C 674.227 772.173 673.727 771.04 672.727 770.103 C 671.727 769.165 670.32 768.696 668.508 768.696 C 665.57 768.696 662.953 769.431 660.656 770.9 L 658.969 766.446 C 661.812 764.696 665.187 763.821 669.094 763.821 C 672.359 763.821 675.027 764.681 677.098 766.4 C 679.168 768.118 680.203 770.321 680.203 773.009 C 680.203 774.884 679.723 776.482 678.762 777.802 C 677.801 779.122 676.406 780.087 674.578 780.696 C 676.672 781.103 678.293 782.111 679.441 783.72 C 680.59 785.329 681.164 787.228 681.164 789.415 C 681.164 791.493 680.609 793.286 679.5 794.794 C 678.391 796.302 676.922 797.419 675.094 798.146 C 673.266 798.872 671.195 799.236 668.883 799.236 Z" style="fill:white;fill-rule:nonzero;"/>
  <path d="M 684.773 798.743 L 684.633 793.681 L 695.484 781.4 C 696.828 779.962 697.809 778.638 698.426 777.427 C 699.043 776.216 699.352 774.939 699.352 773.595 C 699.352 772.111 698.867 770.927 697.898 770.044 C 696.93 769.161 695.656 768.72 694.078 768.72 C 692.625 768.72 691.191 768.989 689.777 769.529 C 688.363 770.068 687.203 770.743 686.297 771.556 L 684.539 766.915 C 686.883 764.853 690.18 763.821 694.43 763.821 C 697.805 763.821 700.519 764.669 702.574 766.364 C 704.629 768.06 705.656 770.454 705.656 773.548 C 705.656 775.736 705.074 777.821 703.91 779.806 C 702.746 781.79 701.156 783.829 699.141 785.923 L 691.406 794.126 L 705.258 794.126 L 704.836 798.743 L 684.773 798.743 Z" style="fill:white;fill-rule:nonzero;"/>
  <rect x="691.263" y="825.208" width="12.563" height="4.781" style="fill:white;fill-rule:nonzero;" transform="matrix(1, 0, 0, 1, 17.862101, -41.676498)"/>
  <path d="M 727.055 798.743 L 727.055 764.407 L 737.766 764.407 C 742.312 764.407 745.703 765.071 747.937 766.4 C 750.172 767.728 751.289 769.939 751.289 773.032 C 751.289 773.532 751.258 774.025 751.195 774.509 C 751.133 774.993 750.992 775.544 750.773 776.161 C 750.555 776.779 750.266 777.337 749.906 777.837 C 749.547 778.337 749.047 778.825 748.406 779.302 C 747.766 779.779 747.016 780.15 746.156 780.415 C 748.281 780.931 749.906 781.919 751.031 783.38 C 752.156 784.841 752.719 786.642 752.719 788.782 C 752.719 792.017 751.574 794.486 749.285 796.189 C 746.996 797.892 743.828 798.743 739.781 798.743 L 727.055 798.743 Z M 733.406 794.15 L 738.914 794.15 C 743.789 794.15 746.227 792.243 746.227 788.431 C 746.227 786.509 745.617 785.126 744.398 784.282 C 743.18 783.439 741.297 783.017 738.75 783.017 L 733.406 783.017 L 733.406 794.15 Z M 733.406 778.587 L 738.844 778.587 C 743.047 778.587 745.148 776.986 745.148 773.782 C 745.148 771.986 744.543 770.751 743.332 770.079 C 742.121 769.407 740.195 769.071 737.555 769.071 L 733.406 769.071 L 733.406 778.587 Z" style="fill:white;fill-rule:nonzero;"/>
  <path d="M 757.852 798.743 L 757.852 772.986 L 763.992 772.986 L 763.992 798.743 L 757.852 798.743 Z M 757.852 769.236 L 757.852 763.986 L 764.016 763.986 L 764.016 769.236 L 757.852 769.236 Z" style="fill:white;fill-rule:nonzero;"/>
  <path d="M 780.68 799.095 C 778.93 799.095 777.473 798.888 776.309 798.474 C 775.144 798.06 774.234 797.407 773.578 796.517 C 772.922 795.626 772.457 794.575 772.184 793.364 C 771.91 792.154 771.773 790.657 771.773 788.876 L 771.773 776.712 L 767.555 776.712 L 767.789 773.384 L 772.195 772.986 L 774.164 766.001 L 777.914 765.978 L 777.914 772.986 L 784.312 772.986 L 784.312 776.712 L 777.914 776.712 L 777.914 788.993 C 777.914 790.946 778.195 792.337 778.758 793.165 C 779.32 793.993 780.359 794.407 781.875 794.407 C 782.766 794.407 783.719 794.329 784.734 794.173 L 784.898 798.579 C 784.867 798.579 784.676 798.614 784.324 798.685 C 783.973 798.755 783.637 798.818 783.316 798.872 C 782.996 798.927 782.586 798.978 782.086 799.025 C 781.586 799.071 781.117 799.095 780.68 799.095 Z" style="fill:white;fill-rule:nonzero;"/>
  <path d="M 509.7 410.8 L 537 444.4 L 482.4 444.4 L 469.8 494.8 L 436.2 494.8 L 448.8 444.4 L 415.2 444.4 L 390 545.2 L 457.2 545.2 L 448.8 578.8 L 507.6 578.8 L 463.5 629.2 L 512.85 629.2 L 553.8 578.8 L 646.2 578.8 L 687.15 629.2 L 736.5 629.2 L 692.4 578.8 L 751.2 578.8 L 742.8 545.2 L 810 545.2 L 784.8 444.4 L 751.2 444.4 L 763.8 494.8 L 730.2 494.8 L 717.6 444.4 L 663 444.4 L 690.3 410.8 L 654.6 410.8 L 625.2 444.4 L 574.8 444.4 L 545.4 410.8 L 509.7 410.8 Z M 513.9 478 L 547.5 478 L 547.5 511.6 L 513.9 511.6 L 513.9 478 Z M 652.588 478 L 686.188 478 L 686.188 511.6 L 652.588 511.6 L 652.588 478 Z" style="fill:white;fill-rule:nonzero;"/>
</svg>